<svg xmlns="http://www.w3.org/2000/svg" viewBox="0 0 900 600"><path fill="#ce1126" d="M0 0h900v600H0z"/><path fill="#fff" d="M0 200h900v400H0z"/><path d="M0 400h900v200H0z"/><g fill="#007a3d"><path d="M537.734 262.58c-1.222-.647-2.597-1.682-3.055-2.309-.688-.959-.289-.998 2.547-.227 5.076 1.377 8.352.838 11.601-1.912l2.864-2.415 3.373 1.716c1.857.938 3.827 1.588 4.397 1.437 1.46-.386 4.489-4.27 4.39-5.615-.118-1.662 1.286-1.243 1.962.578 1.347 3.572-.615 7.669-4.084 8.58-1.692.44-3.258.278-5.822-.615-3.15-1.1-3.688-1.082-5.267.127-3.543 2.713-8.472 2.967-12.906.654m12.556-11.478c-1.233-1.57-2.713-7.498-2.236-8.952.42-1.262.856-1.513 2.002-1.154 2.01.628 2.474 2.014 2.174 6.71-.234 3.825-.801 4.83-1.94 3.396m-147.845-4.262c-.405 2.871 5.091 10.003 7.572 11.295-1.686.756-3.784.412-5.33 1.261-8.645 8.646-40.22 39.43-45.985 46.787 17.078.338 36.017-.232 52.031-.963-.015-11.604 10.988-12.202 18.353-16.428 3.788 5.967 13.303 5.51 14.492 14.49 0 10.752.02 26.95.02 38.64H297.702c-2.566 11.335-12.797 19.982-27.052 16.424 4.41-4.607 11.835-6.19 14.494-12.556 2.242-13.938-4.48-22.546-8.827-30.451 7.191-2.617 8.282-3.272 15.593-8.183-5.133 15.59 13.338 13.878 27.05 13.521.463-5.292.196-11.542-3.866-12.315 5.246-1.905 6.118-2.558 14.494-9.661v21.006c32.597 0 67.756-.243 101.034-.243 0-6.573 1.74-17.133-3.462-17.133-4.969 0-.234 13.518-4.095 13.518h-78.022c0-2.908-.074-8.987-.074-13.366 3.306-3.307 2.914-3.02 25.506-25.614 2.251-2.258 18.1-16.573 31.969-30.029m195.022-.556c5.446 2.932 9.76 6.988 16.427 8.698-.775 2.761-3.232 3.852-3.876 6.76v58.927c7.45 1.642 9.018-2.58 12.563-4.829.968 9.432 6.977 18.677 6.762 26.08h-31.88q.004-47.809.004-95.636m-42.508 31.56s11.597-9.791 11.597-10.168V319.1l8.352-.013c0-19.592-.259-39.465-.259-57.675 3.39-3.392 10.03-8.301 11.69-11.733v92.103c-23.532 0-67.43.026-73.234.026-1.08-19.115-1.263-38.915 21.022-34.656v-7.802c-.68-1.333-1.9.322-2.185-1.412 3.536-3.541 4.736-4.443 14.317-12.815 0 10.1.175 33.942.175 33.942 2.343 0 6.904.009 8.446.009.002.004.079-39.914.079-41.232M527.47 318.58c1.568 2.354 6.907 2.312 6.657-1.654-.9-3.269-7.918-2.023-6.657 1.654"/><path d="M315.473 348.307a4.472 4.472 0 1 0 0 8.943 4.472 4.472 0 1 0 0-8.943m138.005-101.93c5.448 2.932 9.76 6.988 16.427 8.696-.773 2.759-3.232 3.854-3.871 6.76v58.929c7.447 1.64 9.015-2.584 12.56-4.83.966 9.433 6.975 18.674 6.762 26.08h-31.883q.007-47.812.005-95.635"/></g></svg>