<svg xmlns="http://www.w3.org/2000/svg" xmlns:xlink="http://www.w3.org/1999/xlink" viewBox="0 0 180 90"><path fill="#0038a8" d="M0 0h180v90H0z"/><path fill="#ce1126" d="M0 45h180v45H0z"/><path fill="#fff" d="M77.942 45 0 90V0"/><g fill="#fcd116" transform="translate(28 45)"><path d="M0-9A9 9 0 1 0 0 9 9 9 0 1 0 0-9"/><g id="flag-d"><g id="flag-c"><g id="flag-b"><path d="m-19 0 1.178 1.178L0 0l-17.822-1.178z"/><path id="flag-a" d="m-.884.116.05.05L0 0z" transform="scale(19.2381)"/><use xlink:href="#flag-a" transform="scale(1 -1)"/></g><use xlink:href="#flag-b" transform="rotate(45)"/></g><use xlink:href="#flag-c" transform="rotate(90)"/></g><use xlink:href="#flag-d" transform="rotate(180)"/><g transform="translate(-2.02)"><g id="flag-f" transform="translate(37.962)"><path id="flag-e" d="M5 0 1.618 1.176l-.073 3.58-2.163-2.854-3.427 1.037L-2 0z"/><use xlink:href="#flag-e" transform="scale(1 -1)"/></g><use xlink:href="#flag-f" transform="rotate(120)"/><use xlink:href="#flag-f" transform="rotate(-120)"/></g></g></svg>