<svg xmlns="http://www.w3.org/2000/svg" xmlns:xlink="http://www.w3.org/1999/xlink" viewBox="0 0 900 600"><path fill="#f93" d="M0 0h900v200H0z"/><path fill="#fff" d="M0 200h900v200H0z"/><path fill="#128807" d="M0 400h900v200H0z"/><g transform="translate(450 300)"><path fill="#008" d="M0-92.5a92.5 92.5 0 1 0 0 185 92.5 92.5 0 1 0 0-185"/><path fill="#fff" d="M0-80A80 80 0 1 0 0 80 80 80 0 1 0 0-80"/><path fill="#008" d="M0-16a16 16 0 1 0 0 32 16 16 0 1 0 0-32"/><g id="flag-d"><g id="flag-c"><g id="flag-b"><path id="flag-a" fill="#008" d="M79.772 6.972a3.5 3.5 0 1 0-.913 6.94 3.5 3.5 0 1 0 .913-6.94M0 80l3-48-2-16.031V15h-2v.969L-3 32z"/><use xlink:href="#flag-a" transform="rotate(15)"/></g><use xlink:href="#flag-b" transform="rotate(30)"/></g><use xlink:href="#flag-c" transform="rotate(60)"/></g><use xlink:href="#flag-d" transform="rotate(120)"/><use xlink:href="#flag-d" transform="rotate(-120)"/></g></svg>