<svg xmlns="http://www.w3.org/2000/svg" xmlns:xlink="http://www.w3.org/1999/xlink" viewBox="-120 -80 240 160"><defs><path id="flag-spearshape" stroke-miterlimit="10" d="M-1 55.426h2V-38c2-2 2-5 2-8 0-2 0-10-3-18.663C-3-56-3-48-3-46c0 3 0 6 2 8z" transform="rotate(30)"/></defs><path fill="#fff" d="M-120-80h240V80h-240z"/><path d="M-120-80h240v48h-240z"/><path fill="#060" d="M-120 32h240v48h-240z"/><g id="flag-spear"><use xlink:href="#flag-spearshape" stroke="#000"/><use xlink:href="#flag-spearshape" fill="#fff"/></g><use xlink:href="#flag-spear" transform="scale(-1 1)"/><path fill="#b00" d="M-120-24v48h101c3 8 13 24 19 24s16-16 19-24h101v-48H19C16-32 6-48 0-48s-16 16-19 24z"/><path id="flag-deco_r" d="M19 24c3-8 5-16 5-24s-2-16-5-24c-3 8-5 16-5 24s2 16 5 24"/><use xlink:href="#flag-deco_r" transform="scale(-1 1)"/><g fill="#fff"><path d="M0-6A4 6 0 1 0 0 6 4 6 0 1 0 0-6"/><path id="flag-deco_br" d="M1 5.85s4 8 4 21-4 21-4 21z"/><use xlink:href="#flag-deco_br" transform="scale(-1)"/><use xlink:href="#flag-deco_br" transform="scale(-1 1)"/><use xlink:href="#flag-deco_br" transform="scale(1 -1)"/></g></svg>