<svg xmlns="http://www.w3.org/2000/svg" xmlns:xlink="http://www.w3.org/1999/xlink" viewBox="0 0 500 250"><path fill="#1eb53a" d="M0 0h500v250H0z"/><path fill="#0099b5" d="M0 0h500v125H0z"/><path fill="#ce1126" d="M0 80h500v90H0z"/><path fill="#fff" d="M0 85h500v80H0zm70-75a30 30 0 1 0 0 60 30 30 0 1 0 0-60"/><path fill="#0099b5" d="M80 10a30 30 0 1 0 0 60 30 30 0 1 0 0-60"/><g fill="#fff" transform="translate(136 64)"><g id="flag-e"><g id="flag-d"><g id="flag-c"><g id="flag-b"><path id="flag-a" d="M0-6v6h3" transform="rotate(18 0 -6)"/><use xlink:href="#flag-a" transform="scale(-1 1)"/></g><use xlink:href="#flag-b" transform="rotate(72)"/></g><use xlink:href="#flag-b" transform="rotate(-72)"/><use xlink:href="#flag-c" transform="rotate(144)"/></g><use xlink:href="#flag-d" y="-24"/><use xlink:href="#flag-d" y="-48"/></g><use xlink:href="#flag-e" x="24"/><use xlink:href="#flag-e" x="48"/><use xlink:href="#flag-d" x="-48"/><use xlink:href="#flag-d" x="-24"/><use xlink:href="#flag-d" x="-24" y="-24"/></g></svg>